# xmcd
#
# Track frame offsets:
#	150
#	2822
#	28094
#	47654
#	72095
#	96069
#	113272
#	129064
#	150754
#	172309
#	185865
#	205171
#	221459
#	234732
#
# Disc length: 3326 seconds
# Revision: 3
# Processed by: cddbd v1.5.2PL0 Copyright (c) Steve Scherf et al.
# Submitted via: dBpowerAMP V12.0
#
DISCID=b20cfc0e
DTITLE=Barry White - The Album Vol.1 - Cd1
DYEAR=2014
DGENRE=Pop
TTITLE0=Welcome Aboard (Reprise)
TTITLE1=Lady, Sweet Lady
TTITLE2=Your Love, Your Love
TTITLE3=High Steppin', Hip Dressin' Fella
TTITLE4=Jamaican Girl
TTITLE5=We Can't Let Go Of Love
TTITLE6=He's Mine
TTITLE7=The Better Love Is
TTITLE8=I Did It For Love
TTITLE9=Under The Influence Of Love
TTITLE10=It Ain't Love Babe
TTITLE11=Long Black Veil
TTITLE12=I've Got The Whole World To Hold Me Up
TTITLE13=Our Theme (Part 1)
EXTD=
EXTT0=
EXTT1=
EXTT2=
EXTT3=
EXTT4=
EXTT5=
EXTT6=
EXTT7=
EXTT8=
EXTT9=
EXTT10=
EXTT11=
EXTT12=
EXTT13=
PLAYORDER=
